<?xml version="1.0" encoding="utf-8"?>
<!-- Generator: Adobe Illustrator 28.0.0, SVG Export Plug-In . SVG Version: 6.00 Build 0)  -->
<svg version="1.1" xmlns="http://www.w3.org/2000/svg" xmlns:xlink="http://www.w3.org/1999/xlink" x="0px" y="0px"
	 viewBox="0 0 80 80" style="enable-background:new 0 0 80 80;" xml:space="preserve">
<style type="text/css">
	.st0{fill:#DCE0E8;}
	.st1{display:none;}
	.st2{display:inline;fill:none;stroke:#43464C;stroke-miterlimit:10;}
	.st3{display:inline;fill:#43464C;}
</style>
<g id="Capa_1">
	<path d="M24.06,7.28c10.2,0,17.62,0,19.39,0c0.33,0,1.21,0,2.39,0.04c1,0.04,1.81,0.09,2.32,0.13c0.05,4.05,0.1,8.11,0.16,12.16
		c-3.94-0.01-7.88-0.03-11.82-0.04c-0.03,4.22-0.07,8.44-0.1,12.66c1.41,0.39,4.22,0.93,7.26-0.18c1.22-0.45,2.92-1.07,3.94-2.82
		c0.8-1.38,0.78-2.79,0.72-3.48c0-2.04,0-4.09-0.01-6.13c4.05,0.11,8.1,0.21,12.16,0.32c0.12,1.68,0.18,3.52,0.12,5.49
		c-0.04,1.24-0.11,2.43-0.22,3.55c-0.25,1.24-0.71,2.75-1.6,4.3c-2.8,4.86-7.71,6.54-9.27,7.01c1.17,1.66,2.37,3.34,3.61,5.04
		c1.32,1.81,2.64,3.56,3.96,5.27c-4.54,0.05-9.08,0.1-13.63,0.15c-2.34-3.56-4.69-7.13-7.03-10.69c-0.01-2.6-0.01-5.21-0.02-7.81
		c-4.06,0.02-8.12,0.03-12.19,0.05C24.17,23.94,24.12,15.61,24.06,7.28z"/>
	<path d="M15.01,71.39c-0.63-1.35-1.26-2.7-1.88-4.05c-1.42,0-2.85,0-4.27,0c-0.01,1.38-0.02,2.76-0.02,4.14
		c-2.04-0.01-4.07-0.03-6.11-0.04c0.01-3.07,0.01-6.13,0.02-9.2c1.94-0.02,3.88-0.04,5.82-0.07c3,0.23,5.31-0.39,5.78-1.34
		c0.22-0.44,0.28-0.92,0.28-0.92c0.02-0.11,0.13-0.98-0.26-1.71c-0.47-0.87-1.57-1.37-2.78-1.29c-1.04,0.03-2.09,0.06-3.13,0.09
		c0.01,1.35,0.02,2.69,0.03,4.04c-1.92,0.01-3.84,0.03-5.76,0.04c0-3.02,0-6.04,0-9.07c3.56-0.01,7.12-0.03,10.69-0.04
		c0.72-0.01,2.11,0.07,3.62,0.83c1.98,1,2.96,2.59,3.3,3.22c0.26,0.61,1.01,2.59,0.38,5.02c-0.6,2.33-2.08,3.67-2.61,4.11
		c1.4,2.1,2.8,4.21,4.19,6.31C19.87,71.44,17.44,71.42,15.01,71.39z"/>
	<path d="M75.85,65.18c-1.67,4.15-5.99,6.74-10.55,6.29c0.65-1.56,1.29-3.12,1.94-4.68c0.27-0.05,2.87-0.53,4.09-2.99
		c0.14-0.28,0.99-2.07,0.26-4.17c-0.65-1.88-2.35-3.35-4.4-3.62c-2.55-0.35-5.08,1.22-5.91,3.64c-0.68,1.97-0.09,4.13,1.23,5.52
		c0.95,1,2.07,1.37,2.64,1.52c-0.71,1.44-1.42,2.88-2.12,4.32c-0.29-0.11-5.48-2.15-6.53-7.66c-0.74-3.84,0.83-7.86,4.07-10.18
		c3.35-2.39,7.82-2.49,11.21-0.39C75.83,55.3,77.71,60.58,75.85,65.18z"/>
	<path d="M24.41,71.65c-0.01-4-0.01-8.01-0.02-12.01c4.46,0,8.93,0,13.39,0c0,1.51,0,3.03,0,4.54c-2.43,0-4.86-0.01-7.28-0.01
		c0,1.01,0,2.02,0,3.03c3.41,0.01,6.81,0.02,10.22,0.03c0.02,1.47,0.04,2.94,0.06,4.41C35.32,71.64,29.87,71.64,24.41,71.65z"/>
	<path d="M46.97,56.6c-1.56,0-3.12,0-4.68,0c0.01-1.41,0.01-2.82,0.02-4.23c1.88,0.01,3.77,0.01,5.65,0.02
		c0.43,0.01,3.56,0.15,5.36,2.66c1.1,1.53,1.16,3.19,1.17,3.82c0.01,0.54,0.03,2.12-0.93,3.75c-0.57,0.97-1.24,1.54-1.44,1.7
		c-1.68,1.39-3.65,1.46-4.37,1.45c-1.81,0-3.62,0-5.44-0.01c-0.01-1.4-0.01-2.8-0.02-4.2c1.55-0.06,3.11-0.12,4.66-0.18
		c0.18,0.02,1.17,0.1,1.99-0.61c0.15-0.13,0.91-0.78,0.89-1.82c-0.01-0.99-0.72-1.6-0.88-1.74C48.14,56.51,47.16,56.58,46.97,56.6z"
		/>
	<path d="M24.25,56.53c0-1.42,0-2.85,0-4.27c5.42,0.04,10.83,0.09,16.25,0.13c0,1.38-0.01,2.76-0.01,4.14
		C35.07,56.53,29.66,56.53,24.25,56.53z"/>
	<path class="st0" d="M51.47,42.4c0.06-0.09,0.12-0.17,0.18-0.26c-0.04,0.1-0.08,0.19-0.13,0.29C51.52,42.44,51.47,42.4,51.47,42.4z
		"/>
</g>
<g id="Capa_2" class="st1">
	<path class="st2" d="M66.44,71.56L66.44,71.56c-5.6,0-10.13-4.54-10.13-10.13v0c0-5.6,4.54-10.13,10.13-10.13h0
		c5.6,0,10.13,4.54,10.13,10.13v0C76.57,67.02,72.03,71.56,66.44,71.56z"/>
	<path class="st3" d="M66.45,66.84h-0.02c-3,0-5.43-2.43-5.43-5.43v-0.02c0-3,2.43-5.43,5.43-5.43h0.02c3,0,5.43,2.43,5.43,5.43
		v0.02C71.88,64.41,69.45,66.84,66.45,66.84z"/>
</g>
</svg>
